# xmcd
#
# Track frame offsets:
#	150
#	13113
#	25555
#	37310
#	48963
#	61343
#	72973
#	86435
#	100440
#	110480
#	122438
#	134523
#
# Disc length: 1961 seconds
#
# Revision: 0
# Processed by: cddbd v1.5.2PL0 Copyright (c) Steve Scherf et al.
# Submitted via: audiograbber 1.83.01
#
DISCID=a007a70c
DTITLE=Howlin' Wolf - The Real Folk Blues
DYEAR=1956
DGENRE=Blues
TTITLE0=Killing Floor
TTITLE1=Louise
TTITLE2=Poor Boy
TTITLE3=Sittin' On Top Of The World
TTITLE4=Nature
TTITLE5=My Country Sugar Mama (a.k.a. Sugar Mama)
TTITLE6=Tail Dragger
TTITLE7=Three Hundred Pounds Of Joy
TTITLE8=Natchez Burning
TTITLE9=Built For Comfort
TTITLE10=Ooh Baby, Hold Me
TTITLE11=Tell Me What I've Done
EXTD=
EXTT0=
EXTT1=
EXTT2=
EXTT3=
EXTT4=
EXTT5=
EXTT6=
EXTT7=
EXTT8=
EXTT9=
EXTT10=
EXTT11=
PLAYORDER=
